# xmcd CD database file
#
# Track frame offsets:
#	150
#	13387
#	24764
#	42418
#	53032
#	69199
#	83916
#	102153
#	117592
#	131149
#	152771
#	168673
#	183070
#	198112
#	212397
#	241078
#	256337
#	278575
#
# Disc length: 3915 seconds
#
# Revision: 1
# Processed by: cddbd v1.4PL0 Copyright (c) Steve Scherf et al.
# Submitted via: CDex 1.40Beta8
#
DISCID=e90f4912
DTITLE=Louis Armstrong - Satchmo The Great
DYEAR=2000
DGENRE=Jazz
TTITLE0=Sweethearts On Parade (With Frank Sinatra)
TTITLE1=Hello Dolly
TTITLE2=Cabaret
TTITLE3=Pretty Little Missy
TTITLE4=I Can't Give You Anything But Love
TTITLE5=Basin Street Blues
TTITLE6=Ain't Misbehavin'
TTITLE7=On The Sunny Side Of The Street
TTITLE8=Snake Rag
TTITLE9=Tea For Two
TTITLE10=When You're Smiling
TTITLE11=Big Butter and Egg Man
TTITLE12=Dinah
TTITLE13=What Did I Do To Be So Black And Blue
TTITLE14=Ow High The Moon
TTITLE15=Please Don't Talk About Me When I'm Gone
TTITLE16=That's My Desire
TTITLE17=Just A Gigolo
EXTD=YEAR: 2000 ID3G: 8
EXTT0=
EXTT1=
EXTT2=
EXTT3=
EXTT4=
EXTT5=
EXTT6=
EXTT7=
EXTT8=
EXTT9=
EXTT10=
EXTT11=
EXTT12=
EXTT13=
EXTT14=
EXTT15=
EXTT16=
EXTT17=
PLAYORDER=
